<svg width="96" height="96" xmlns="http://www.w3.org/2000/svg" xmlns:xlink="http://www.w3.org/1999/xlink" xml:space="preserve" overflow="hidden"><g transform="translate(-608 -328)"><path d="M631 410 631 342 656 342 656 363 681 363 681 410 631 410ZM662 344.5 674.5 357 662 357 662 344.5ZM662 336 625 336 625 416 687 416 687 358 662 336Z" fill="#223244"/><path d="M637 373 675 373 675 377 637 377Z" fill="#223244"/><path d="M637 365 650 365 650 369 637 369Z" fill="#223244"/><path d="M637 381 675 381 675 385 637 385Z" fill="#223244"/><path d="M637 389 675 389 675 393 637 393Z" fill="#223244"/><path d="M637 397 675 397 675 401 637 401Z" fill="#223244"/></g></svg>