<svg width="96" height="96" xmlns="http://www.w3.org/2000/svg" xmlns:xlink="http://www.w3.org/1999/xlink" xml:space="preserve" overflow="hidden"><g transform="translate(-196 -328)"><path d="M219 410 219 342 244 342 244 363 269 363 269 410 219 410ZM250 344.5 262.5 357 250 357 250 344.5ZM250 336 213 336 213 416 275 416 275 358 250 336Z" fill="#223244"/><path d="M225 373 263 373 263 377 225 377Z" fill="#223244"/><path d="M225 365 238 365 238 369 225 369Z" fill="#223244"/><path d="M225 381 263 381 263 385 225 385Z" fill="#223244"/><path d="M225 389 263 389 263 393 225 393Z" fill="#223244"/><path d="M225 397 263 397 263 401 225 401Z" fill="#223244"/></g></svg>